<svg id="Layer_3" data-name="Layer 3" xmlns="http://www.w3.org/2000/svg" viewBox="0 0 133.67 62"><defs><style>.cls-1,.cls-14{fill:#fa6771;}.cls-2{fill:#c54f60;}.cls-3{fill:#cd5362;}.cls-15,.cls-4{fill:#71c1fe;}.cls-5{fill:#57a2c8;}.cls-6{fill:#f3f6fa;}.cls-7{fill:#f1edf2;}.cls-8{fill:#79b9f1;}.cls-9{fill:#6bb2e5;}.cls-10{fill:#69b1e2;}.cls-11{fill:#d3e0f3;}.cls-12{fill:#7f3d32;}.cls-13{fill:#7e3d32;}.cls-14{font-size:12px;font-family:BritannicBold, Britannic Bold;}.cls-15{font-size:28px;font-family:Ebrima;}</style></defs><path class="cls-1" d="M76.46,2.86A5.8,5.8,0,0,1,79,3.05,14.38,14.38,0,0,1,89.2,10.53a13.42,13.42,0,0,1,.37,12.17,25.85,25.85,0,0,1-4.43,6.83A46.6,46.6,0,0,1,77,36.85c-.62-.49-1.28-.93-1.89-1.44a1.77,1.77,0,0,1-.41-.41,1.15,1.15,0,0,0-.43-.61,27.64,27.64,0,0,1-3.39-3.1.92.92,0,0,0-.7-.33,2.4,2.4,0,0,1-.39-.39c.08-.6,0-.69-.67-.8a23.39,23.39,0,0,1-5.19-8.59A13.42,13.42,0,0,1,66.5,8a14.57,14.57,0,0,1,9-5.16C75.82,2.91,76.14,2.77,76.46,2.86Z" transform="translate(-18.75 -2.75)"/><path class="cls-2" d="M75.44,3a22.59,22.59,0,0,0-2.91.86,15.52,15.52,0,0,0-4.3,2.61,14.32,14.32,0,0,0-3.5,4.5,13.6,13.6,0,0,0-1.34,4.89,15.43,15.43,0,0,0,2.53,9.48,26.79,26.79,0,0,0,3,4.15,1.89,1.89,0,0,1,.19.3,1.21,1.21,0,0,0,.64.82.39.39,0,0,1,.36.35,1.5,1.5,0,0,0,.43.71,37.88,37.88,0,0,0,3.24,3,1.26,1.26,0,0,0,.88.37c.67.52,1.31,1.07,2,1.53a.46.46,0,0,1,.25.35c-.94.76-.94.77-1.91.07a44.55,44.55,0,0,1-9.79-9.3A19.73,19.73,0,0,1,61.5,20,13.35,13.35,0,0,1,64.31,8.17a14.71,14.71,0,0,1,9.54-5.3,4,4,0,0,1,.49,0c.33-.11.68,0,1-.08H76C75.88,3.06,75.59,2.81,75.44,3Z" transform="translate(-18.75 -2.75)"/><path class="cls-3" d="M75.44,3c.14-.19.4,0,.54-.18.17,0,.34-.09.48.08A5.78,5.78,0,0,1,75.44,3Z" transform="translate(-18.75 -2.75)"/><path class="cls-3" d="M75.35,2.78c-.32.18-.67.06-1,.08A2.16,2.16,0,0,1,75.35,2.78Z" transform="translate(-18.75 -2.75)"/><path class="cls-4" d="M77.24,6.45a10,10,0,0,1,5.48,2.24,10.48,10.48,0,0,1,4.11,8.83,10.56,10.56,0,0,1-5.33,9.07,10.06,10.06,0,0,1-4.7,1.47,9.34,9.34,0,0,1-5-1.89,10.62,10.62,0,0,1-4.52-7.75,10.63,10.63,0,0,1,3-8.84,10.54,10.54,0,0,1,5.17-3A5.09,5.09,0,0,1,77.24,6.45Z" transform="translate(-18.75 -2.75)"/><path class="cls-5" d="M77.24,6.45a10,10,0,0,0-6.46,2.83A10.38,10.38,0,0,0,67.5,15.2a10.87,10.87,0,0,0,9,12.77l.25.09a8.53,8.53,0,0,1-3.41-.27,10.76,10.76,0,0,1-6.9-5.24c-.09-.16-.14-.33-.22-.49s-.08-.37-.25-.48a8.77,8.77,0,0,1-.82-3.3,10.83,10.83,0,0,1,0-2.13A7.89,7.89,0,0,1,66,13a2.23,2.23,0,0,0,.29-.65,9.54,9.54,0,0,1,2.5-3.3,10.73,10.73,0,0,1,8.08-2.71A.59.59,0,0,1,77.24,6.45Z" transform="translate(-18.75 -2.75)"/><path class="cls-6" d="M74.7,35a.44.44,0,0,1-.61,0,33.4,33.4,0,0,1-3.83-3.5c-.15-.15-.24-.31-.11-.52a.41.41,0,0,1,.58.11,32.41,32.41,0,0,0,3.78,3.44A.44.44,0,0,1,74.7,35Z" transform="translate(-18.75 -2.75)"/><path class="cls-7" d="M69.79,30.57c-.5-.06-.74-.38-.64-.82.32-.19.5,0,.68.23A.39.39,0,0,1,69.79,30.57Z" transform="translate(-18.75 -2.75)"/><path class="cls-8" d="M65.2,16.15v2.13A5.45,5.45,0,0,1,65.2,16.15Z" transform="translate(-18.75 -2.75)"/><path class="cls-9" d="M66.27,12.38A.76.76,0,0,1,66,13,1.53,1.53,0,0,1,66.27,12.38Z" transform="translate(-18.75 -2.75)"/><path class="cls-10" d="M66,21.58c.26.06.25.27.25.48Z" transform="translate(-18.75 -2.75)"/><path class="cls-11" d="M73.46,18.12a.62.62,0,0,1-.08-.44c0-.49,0-1,0-1.48s.11-1.17-.68-1.51a1.5,1.5,0,0,1-.77-1.56c0-.47,0-.93,0-1.4A1.8,1.8,0,0,1,73.71,10a1.91,1.91,0,0,1,2.08,1.72,12.51,12.51,0,0,1,0,1.62,1.87,1.87,0,0,1-1.11,1.57.66.66,0,0,0-.41.7c0,.69,0,1.37,0,2.06,0,.16,0,.34-.09.48A.45.45,0,0,1,73.46,18.12Z" transform="translate(-18.75 -2.75)"/><path class="cls-11" d="M78.42,17.89c0-.9,0-1.8,0-2.69a.49.49,0,0,0-.32-.52A1.89,1.89,0,0,1,77,12.81c0-.71,0-1.41,0-2.12,0-.31.08-.54.44-.53s.46.22.46.54v2.11a1.11,1.11,0,0,0,.48,1c.15-.11.07-.27.07-.41,0-.87,0-1.73,0-2.6,0-.35.1-.61.49-.61s.42.3.42.6c0,.9,0,1.8,0,2.7,0,.12,0,.27.11.32s.2-.11.28-.19a1,1,0,0,0,.23-.75c0-.72,0-1.44,0-2.16,0-.32.11-.53.46-.53s.45.22.44.54v2.2a1.79,1.79,0,0,1-1.08,1.76.66.66,0,0,0-.44.73c0,.84,0,1.68,0,2.52A.8.8,0,0,1,78.42,17.89Z" transform="translate(-18.75 -2.75)"/><path class="cls-12" d="M78.42,17.89h.9c.53-.09.67.17.68.66,0,1.17.1,2.33.14,3.5a1.21,1.21,0,0,1-1.25,1.29,1.23,1.23,0,0,1-1.21-1.29c0-1.27.13-2.54.17-3.81C77.86,17.79,78.2,18,78.42,17.89Z" transform="translate(-18.75 -2.75)"/><path class="cls-13" d="M73.46,18.12a2.24,2.24,0,0,0,.73,0c.7.07.69.07.72.8,0,1.11.12,2.21.16,3.32a1.25,1.25,0,0,1-2.19.87,1.14,1.14,0,0,1-.3-.78l.18-3.9c0-.21.09-.3.3-.29A2.75,2.75,0,0,0,73.46,18.12Z" transform="translate(-18.75 -2.75)"/><text class="cls-14" transform="translate(0 48.29)">Restaurant </text><text class="cls-15" transform="translate(61.41 53.06)">finder</text></svg>